<?xml version="1.0" standalone="no"?><!DOCTYPE svg PUBLIC "-//W3C//DTD SVG 1.1//EN" "http://www.w3.org/Graphics/SVG/1.1/DTD/svg11.dtd"><svg t="1596970257404" class="icon" viewBox="0 0 1024 1024" version="1.1" xmlns="http://www.w3.org/2000/svg" p-id="1926" xmlns:xlink="http://www.w3.org/1999/xlink" width="32" height="32"><defs><style type="text/css"></style></defs><path d="M814.933333 914.666667H214.4c-54.933333 0-99.733333-44.8-99.733333-99.733334V214.4c0-54.933333 44.8-99.733333 99.733333-99.733333h601.066667c54.933333 0 99.733333 44.8 99.733333 99.733333v601.066667c-0.533333 54.4-45.333333 99.2-100.266667 99.2z" fill="#4ACBEA" p-id="1927"></path><path d="M410.133333 509.333333V365.866667c0-9.066667 10.133333-14.933333 18.133334-10.666667l124.266666 72 124.266667 72c8 4.8 8 16.533333 0 20.8L552.533333 592l-124.266666 72c-8 4.8-18.133333-1.066667-18.133334-10.666667v-144z" fill="#FCFCFC" p-id="1928"></path></svg>